<svg id="Layer_1" enable-background="new 0 0 511.852 511.852" height="512" viewBox="0 0 511.852 511.852" width="512" xmlns="http://www.w3.org/2000/svg"><g><g><path d="m178.461 511.852v-30c34.44 0 62.46-28.019 62.46-62.459v-196.034h30v196.034c0 50.982-41.477 92.459-92.46 92.459z" fill="#75c231"/></g><path d="m270.921 223.359h-14.995v246.462c9.48-14.512 14.995-31.839 14.995-50.429z" fill="#5ca239"/><path d="m485.6 227.139-.144-.537c-10.417-40.795-54.462-66.227-94.968-54.832l-84.359 22.602 61.752-61.756c30.232-30.234 30.232-79.428 0-109.66l-.396-.396c-28.865-30.082-80.799-30.081-109.662 0l-1.898 1.898-1.899-1.898c-28.864-30.083-80.797-30.081-109.662 0l-.394.394c-30.233 30.233-30.234 79.427-.001 109.66l61.757 61.757-84.364-22.603c-40.509-11.395-84.549 14.037-94.967 54.83l-.146.541c-5.36 20.006-2.609 40.903 7.746 58.841 10.356 17.938 27.078 30.768 47.085 36.129l2.594.695-.695 2.593c-5.36 20.007-2.609 40.903 7.746 58.841 10.356 17.938 27.078 30.768 47.082 36.128l.542.145c40.507 11.398 84.549-14.032 94.97-54.829l22.606-84.357 22.605 84.357c9.07 33.846 39.854 57.485 74.86 57.486 6.761 0 13.526-.894 20.111-2.658l.536-.144c20.008-5.361 36.729-18.191 47.086-36.129 10.355-17.938 13.106-38.834 7.746-58.841l-.695-2.593 2.594-.695c20.007-5.361 36.729-18.191 47.085-36.129 10.357-17.935 13.108-38.832 7.747-58.84z" fill="#add04d"/><path d="m485.6 227.139-.144-.537c-10.417-40.795-54.462-66.227-94.968-54.832l-84.359 22.602 61.752-61.756c30.232-30.234 30.232-79.428 0-109.66l-.396-.396c-28.865-30.082-80.799-30.081-109.662 0l-1.898 1.898v256.868l22.605 84.357c9.07 33.846 39.854 57.485 74.86 57.486 6.761 0 13.526-.894 20.111-2.658l.536-.144c20.008-5.361 36.729-18.191 47.086-36.129 10.355-17.938 13.106-38.834 7.746-58.841l-.695-2.593 2.594-.695c20.007-5.361 36.729-18.191 47.085-36.129 10.357-17.936 13.108-38.833 7.747-58.841z" fill="#75c231"/></g></svg>